<svg width="71" height="71" viewBox="0 0 71 71" fill="none" xmlns="http://www.w3.org/2000/svg">
<path opacity="0.3" fill-rule="evenodd" clip-rule="evenodd" d="M53 42C59.0751 42 64 37.0751 64 31C64 24.9249 59.0751 20 53 20C47.6079 20 43.1219 23.8798 42.1814 29H15V51H53V42Z" fill="white"/>
<path fill-rule="evenodd" clip-rule="evenodd" d="M5.68759 4.23751C5.06967 4.52423 4.45015 5.16279 4.19383 5.77735C3.86871 6.55703 3.90951 27.6055 4.23751 28.3125C4.86103 29.6564 5.65143 30.0001 8.11879 30.0001H9.99559L10.029 43.2188L10.0626 56.4375L10.4303 57.1876C10.8999 58.1453 11.8561 59.1018 12.8125 59.5703L13.5626 59.9375L20.2813 59.973L27.0001 60.0084V62.0042V64.0001H24.0001H21.0001V65.0001V66.0001H34.0001H47.0001V65.0001V64.0001H44.0001H41.0001V62.0042V60.0084L47.7188 59.973L54.4375 59.9375L55.1876 59.5698C55.6001 59.3676 56.2221 58.9177 56.5698 58.5698C56.9177 58.2221 57.3676 57.6001 57.5698 57.1876L57.9375 56.4375L57.9725 48.7693C58.0053 41.5737 58.0207 41.1066 58.2225 41.1892C61.0669 42.3532 64.2279 39.4898 63.3121 36.5786C62.95 35.4274 63.2245 34.7721 64.2501 34.3394C66.7121 33.3007 66.6737 28.6972 64.1941 27.6263C63.2263 27.2082 62.9405 26.5145 63.2999 25.4559C64.23 22.7162 61.2839 19.7701 58.5442 20.7002C57.4857 21.0596 56.7919 20.7738 56.3738 19.806C55.2869 17.2892 50.7132 17.2892 49.6263 19.806C49.2082 20.7738 48.5145 21.0596 47.4559 20.7002C46.2265 20.2828 45.1287 20.5212 44.0546 21.4388L43.3977 22.0001H40.6989H38.0001V14.121C38.0001 5.43575 38.0268 5.74935 37.2125 4.89111C36.3065 3.93623 37.5773 4.00551 21.0001 4.00551C6.83383 4.00551 6.16583 4.01575 5.68759 4.23751ZM35.2449 6.14199C35.9129 6.37479 36.0001 6.76919 36.0001 9.55863V12.0001H21.0001H6.00007V9.58119C6.00007 6.85255 6.08247 6.43655 6.67319 6.17943C7.19559 5.95191 34.5969 5.91607 35.2449 6.14199ZM8.00007 9.00007V10.0001H9.00007H10.0001V9.00007V8.00007H9.00007H8.00007V9.00007ZM12.0001 9.00007V10.0001H13.0001H14.0001V9.00007V8.00007H13.0001H12.0001V9.00007ZM16.0001 9.00007V10.0001H17.0001H18.0001V9.00007V8.00007H17.0001H16.0001V9.00007ZM36.0001 20.4415C36.0001 27.5813 35.9986 27.5954 35.2449 27.8581C34.6655 28.0601 7.33463 28.0601 6.75527 27.8581C6.00151 27.5954 6.00007 27.5813 6.00007 20.4415V14.0001H21.0001H36.0001V20.4415ZM8.00007 17.0001V18.0001H10.0001H12.0001V17.0001V16.0001H10.0001H8.00007V17.0001ZM14.0001 17.0001V18.0001H19.0001H24.0001V17.0001V16.0001H19.0001H14.0001V17.0001ZM26.0001 21.0001V26.0001H30.0001H34.0001V21.0001V16.0001H30.0001H26.0001V21.0001ZM32.0001 21.0001V24.0001H30.0001H28.0001V21.0001V18.0001H30.0001H32.0001V21.0001ZM8.00007 21.0001V22.0001H16.0001H24.0001V21.0001V20.0001H16.0001H8.00007V21.0001ZM54.0916 20.2732C54.201 20.3636 54.3956 20.6741 54.5238 20.9633C55.2487 22.5981 57.425 23.4887 59.0433 22.8125C59.7356 22.5233 59.962 22.5794 60.6329 23.2069C61.3802 23.906 61.4741 24.2045 61.185 24.9615C60.5466 26.6333 61.2914 28.5709 62.8825 29.3773C64.3697 30.1311 64.4505 31.897 63.0266 32.5282C61.3791 33.2588 60.5329 35.3311 61.185 37.0386C61.4741 37.7956 61.3802 38.0941 60.6329 38.7932C59.962 39.4207 59.7356 39.4769 59.0433 39.1876C57.4687 38.5297 55.4165 39.3164 54.6228 40.8825C53.8719 42.3637 52.1031 42.4506 51.4764 41.0369C50.7514 39.402 48.5751 38.5114 46.9569 39.1876C46.2332 39.49 46.0134 39.4263 45.2935 38.7066C44.5738 37.9868 44.5101 37.7669 44.8125 37.0433C45.4705 35.4687 44.6837 33.4165 43.1177 32.6228C42.1585 32.1365 42.0626 31.989 42.0626 31.0001C42.0626 30.0111 42.1585 29.8636 43.1177 29.3773C44.6849 28.5829 45.4791 26.5298 44.8213 24.9729C44.509 24.2335 44.5698 24.0172 45.2935 23.2935C46.0134 22.5738 46.2332 22.5101 46.9569 22.8125C48.5314 23.4705 50.5836 22.6837 51.3773 21.1177C51.7548 20.3732 51.9191 20.1913 52.3125 20.0834C52.7188 19.9719 53.8761 20.0954 54.0916 20.2732ZM8.00007 25.0001V26.0001H11.0001H14.0001V25.0001V24.0001H11.0001H8.00007V25.0001ZM16.0001 25.0001V26.0001H17.0001H18.0001V25.0001V24.0001H17.0001H16.0001V25.0001ZM20.0001 25.0001V26.0001H22.0001H24.0001V25.0001V24.0001H22.0001H20.0001V25.0001ZM42.5055 24.4689C42.5085 24.7266 42.5921 25.1626 42.6911 25.4375C42.7903 25.7125 42.8722 25.9516 42.8732 25.9689C42.8741 25.986 41.7781 26.0001 40.4375 26.0001H38.0001V25.0001V24.0001H40.2501H42.5001L42.5055 24.4689ZM50.9965 24.2346C43.2943 26.6999 44.9389 38.0001 53.0001 38.0001C60.9353 38.0001 62.7343 26.842 55.2065 24.3149C54.0269 23.9189 52.0978 23.8821 50.9965 24.2346ZM55.0337 26.5314C59.7941 28.7229 58.2407 35.8125 53.0001 35.8125C47.4881 35.8125 46.2117 28.2049 51.4125 26.3506C52.3868 26.0034 54.069 26.0873 55.0337 26.5314ZM40.8004 28.3133C39.2369 29.8769 39.8431 33.5066 41.8125 34.3727C42.7751 34.7961 43.0585 35.4892 42.7002 36.5442C41.7701 39.2839 44.7162 42.23 47.4559 41.2999C48.5263 40.9365 49.1796 41.2141 49.661 42.2369C50.0201 42.9997 50.6349 43.5738 51.3735 43.8362L52.0001 44.0588V47.0294V50.0001H34.0001H16.0001V40.0023V30.0044L26.0519 29.9709L36.1036 29.9375L36.6457 29.5591C36.9437 29.3511 37.3564 28.9181 37.5626 28.5972L37.9375 28.0137L39.5257 28.0068L41.1137 28.0001L40.8004 28.3133ZM51.6876 28.2375C49.3799 29.3082 49.4367 32.83 51.7773 33.8063C53.8205 34.6585 55.9946 33.2119 55.9946 31.0001C55.9946 28.7469 53.726 27.2917 51.6876 28.2375ZM14.0005 40.3437C14.001 50.4447 14.0068 50.6972 14.2493 51.0949C14.8335 52.0529 14.237 51.9988 24.2501 52.0023C33.0538 52.0055 33.1801 52.009 32.6876 52.2375C31.6122 52.7365 31.0001 53.7386 31.0001 55.0001C31.0001 56.2605 31.6098 57.2596 32.6876 57.765C33.1809 57.9964 33.0633 57.9991 23.8125 57.9685C13.2757 57.9337 13.8623 57.9866 12.9127 56.9846C12.0053 56.0271 12.0665 57.0092 12.0279 42.7813L11.9933 30.0001H12.9967H14.0001L14.0005 40.3437ZM53.625 30.3751C53.7639 30.514 53.8751 30.7917 53.8751 31.0001C53.8751 31.2084 53.7639 31.4861 53.625 31.625C53.4861 31.7639 53.2084 31.8751 53.0001 31.8751C52.7917 31.8751 52.514 31.7639 52.3751 31.625C52.2362 31.4861 52.125 31.2084 52.125 31.0001C52.125 30.7917 52.2362 30.514 52.3751 30.3751C52.514 30.2362 52.7917 30.125 53.0001 30.125C53.2084 30.125 53.4861 30.2362 53.625 30.3751ZM18.0001 33.0001V34.0001H28.0001H38.0001V33.0001V32.0001H28.0001H18.0001V33.0001ZM18.0001 37.0001V38.0001H28.0001H38.0001V37.0001V36.0001H28.0001H18.0001V37.0001ZM17.9365 40.0012L17.1933 40.7522L18.8137 42.3761L20.434 44.0001L18.8122 45.6253L17.1906 47.2506L17.9708 48.0308L18.7509 48.8109L21.1559 46.4058L23.5609 44.0009L21.1879 41.6255C19.8828 40.3189 18.7845 39.2501 18.7474 39.2501C18.7101 39.2501 18.3453 39.5881 17.9365 40.0012ZM55.9753 50.2501C55.933 56.1975 55.9346 56.1873 54.9846 57.0874C54.0425 57.9802 54.6082 57.9341 44.1876 57.9685C34.9369 57.9991 34.8193 57.9964 35.3125 57.765C37.5836 56.7001 37.5836 53.2913 35.3125 52.2375C34.8201 52.009 34.9463 52.0055 43.7501 52.0023C55.1509 51.9983 53.9989 52.5186 53.9996 47.3732L54.0001 44.0588L54.5938 43.8463C54.9204 43.7293 55.3564 43.477 55.5626 43.2857L55.9375 42.9375L55.9753 43.9375C55.9959 44.4876 55.9959 47.3282 55.9753 50.2501ZM24.0001 47.0001V48.0001H28.0001H32.0001V47.0001V46.0001H28.0001H24.0001V47.0001ZM34.625 54.3751C34.7639 54.514 34.8751 54.7917 34.8751 55.0001C34.8751 55.2084 34.7639 55.4861 34.625 55.625C34.4861 55.7639 34.2084 55.8751 34.0001 55.8751C33.7917 55.8751 33.514 55.7639 33.3751 55.625C33.2362 55.4861 33.125 55.2084 33.125 55.0001C33.125 54.7917 33.2362 54.514 33.3751 54.3751C33.514 54.2362 33.7917 54.125 34.0001 54.125C34.2084 54.125 34.4861 54.2362 34.625 54.3751ZM39.0001 62.0001V64.0001H34.0001H29.0001V62.0001V60.0001H34.0001H39.0001V62.0001Z" fill="black"/>
</svg>
