<svg width="71" height="71" viewBox="0 0 71 71" fill="none" xmlns="http://www.w3.org/2000/svg">
<path fill-rule="evenodd" clip-rule="evenodd" d="M21 10H27V12L43 12.5L43.5 10H49V15.1313C50.3394 14.4096 51.8719 14 53.5 14C58.7467 14 63 18.2533 63 23.5C63 28.7467 58.7467 33 53.5 33C51.8719 33 50.3394 32.5904 49 31.8687V38.1313C50.3394 37.4096 51.8719 37 53.5 37C58.7467 37 63 41.2533 63 46.5C63 51.7467 58.7467 56 53.5 56C51.8719 56 50.3394 55.5904 49 54.8687V61H21V54.2469C19.4479 55.3508 17.5497 56 15.5 56C10.2533 56 6 51.7467 6 46.5C6 41.2533 10.2533 37 15.5 37C17.5497 37 19.4479 37.6492 21 38.7531V31.8687C19.6606 32.5904 18.1281 33 16.5 33C11.2533 33 7 28.7467 7 23.5C7 18.2533 11.2533 14 16.5 14C18.1281 14 19.6606 14.4096 21 15.1313V10Z" fill="#C4C4C4" fill-opacity="0.3"/>
<path fill-rule="evenodd" clip-rule="evenodd" d="M20.7858 6.15171C18.4469 6.72244 16.8645 8.58571 16.5857 11.0967L16.4576 12.2516L15.3387 12.3888C12.6625 12.7169 10.1844 13.8987 10.1844 14.8469C10.1844 15.7497 10.93 15.9835 11.9693 15.4065C21.2666 10.2439 30.3736 22.2525 22.8184 29.7121C15.4462 36.9912 3.68314 27.8779 8.67122 18.7519C9.22009 17.7475 9.25737 17.3123 8.82348 16.9711C8.07293 16.3807 7.53679 16.7526 6.72815 18.4247C3.40107 25.3033 8.01634 33.5393 15.5211 34.1161L16.5008 34.1914V35.0339V35.8764L15.3603 35.9535C4.5039 36.6876 1.08385 50.7944 10.4241 56.3136C11.8948 57.1826 14.021 57.7802 15.6527 57.7831L16.5008 57.7846L16.5031 58.8081C16.5097 61.7133 17.4577 63.6278 19.4029 64.6646C20.8264 65.4234 20.1988 65.3964 35.6553 65.3612L49.6614 65.3292L50.3632 65.0477C52.911 64.0259 54.0478 62.1803 54.0478 59.0656V57.7846L54.6034 57.7831C57.0066 57.7766 59.7126 56.5541 61.7208 54.5681C68.3645 47.9974 64.2774 36.8554 54.8958 35.962L54.0478 35.8813V35.0191V34.157L54.5449 34.1561C57.6342 34.1506 61.2881 32.106 63.1122 29.3622C67.7527 22.382 63.2876 13.1315 54.8958 12.3401L54.0478 12.26V11.6343C54.0478 9.21603 52.6782 7.23583 50.3632 6.30742L49.6614 6.02594L35.5666 6.00513C23.6828 5.98747 21.3643 6.01052 20.7858 6.15171ZM50.0124 8.18716C51.3374 8.84338 52.0728 9.98874 52.1534 11.5217L52.2028 12.4654L51.5169 12.6172C51.1398 12.7008 50.7712 12.7939 50.698 12.8243C50.6075 12.8617 50.5506 12.599 50.5205 12.0041C50.421 10.0313 49.5152 9.47639 46.3946 9.47669C43.6692 9.47699 43.1097 9.73811 42.8764 11.1191C42.7294 11.9893 43.2554 11.9329 35.284 11.9329C27.2397 11.9329 27.8346 12.0014 27.6902 11.0583C27.4886 9.7432 26.9035 9.47595 24.2327 9.47909C21.0215 9.48283 20.0131 10.1552 20.0104 12.2937L20.0098 12.8298L19.1768 12.6445L18.3439 12.4593L18.4044 11.5677C18.5258 9.78317 19.4865 8.52193 21.121 8.00165C21.4907 7.88397 24.5101 7.85747 35.5083 7.87514L49.4274 7.89745L50.0124 8.18716ZM34.6309 9.24268C34.0593 9.81431 34.486 10.7632 35.3147 10.7632C35.8829 10.7632 36.1983 10.4425 36.1983 9.86507C36.1983 9.10165 35.1774 8.6962 34.6309 9.24268ZM25.9137 11.7827C26.0823 12.6809 26.76 13.4525 27.5804 13.6804C28.3666 13.8987 42.6098 13.846 43.1441 13.6227C43.9424 13.2893 44.6903 12.3328 44.6903 11.6451V11.348H46.4188C48.663 11.348 48.6672 11.3506 48.6672 12.6901V13.668L47.7522 14.3091C43.4371 17.3328 41.9119 23.2506 44.2197 28.0161C45.0273 29.684 46.3365 31.2021 47.8712 32.2508L48.6672 32.7947V35.0513V37.3079L47.9946 37.7377C46.5142 38.6839 45.0691 40.3352 45.214 40.9155C45.5001 42.0622 46.1968 41.9413 47.685 40.4863C55.8028 32.5495 68.195 43.7659 61.0517 52.5849C55.1562 59.8637 43.5678 54.3893 45.1517 45.0737C45.3353 43.9938 45.2059 43.5897 44.6302 43.4452C43.5924 43.1847 43.1697 44.1772 43.1697 46.8745C43.1697 50.5464 44.8864 53.8391 47.8606 55.8712L48.6672 56.4223V58.0326C48.6672 59.5641 48.6544 59.6518 48.4072 59.825C47.9475 60.1471 22.4389 60.0968 22.1153 59.7732C21.9023 59.5602 21.8813 59.3832 21.8813 57.7947V56.0501L22.4483 55.6339C28.2061 51.4073 28.2661 42.5654 22.567 38.18L21.8813 37.6524V35.214V32.7755L22.4163 32.462C29.0108 28.5975 29.0871 18.4189 22.5539 14.099L21.8813 13.6543V12.7351C21.8813 11.3641 21.9068 11.348 24.0907 11.348H25.8323L25.9137 11.7827ZM56.3244 14.4546C61.9756 15.9852 64.7908 22.4079 62.0379 27.4898C58.1485 34.6697 47.6455 33.53 45.329 25.6767C43.8089 20.523 47.3502 15.1119 52.8196 14.2309C53.4678 14.1266 55.6203 14.2638 56.3244 14.4546ZM53.8723 17.1566C52.6933 17.777 52.4102 18.4041 52.4102 20.3956V21.9666L51.5204 22.0116C49.5111 22.1131 49.4758 23.8638 51.4829 23.8638H52.4102V26.8379V29.8121L52.7184 30.0545C53.1093 30.3622 53.4655 30.3622 53.8566 30.0545L54.1647 29.8121V26.8379V23.8638H55.0291C57.0542 23.8638 57.0783 22.1138 55.0547 22.0116L54.1647 21.9666V20.6838C54.1647 18.8487 54.3005 18.7171 56.1942 18.7171C57.6572 18.7171 58.0247 18.5409 58.0247 17.8398C58.0247 16.9971 55.0922 16.5146 53.8723 17.1566ZM12.4061 17.1853C10.531 17.7781 10.3943 18.2147 10.4406 23.4637L10.4768 27.5671L10.8296 28.1374C11.0862 28.5524 11.3526 28.7966 11.8079 29.0345L12.4335 29.3613L16.5434 29.3586C22.8626 29.3547 22.7452 29.4789 22.6799 22.86L22.6416 18.9905L22.2877 18.4183C22.0685 18.064 21.7156 17.7112 21.3613 17.492L20.789 17.138L16.7441 17.1153C14.5194 17.1028 12.5674 17.1343 12.4061 17.1853ZM20.5415 19.2381L20.8286 19.5252V23.1993C20.8286 26.7391 20.8198 26.8847 20.5862 27.1815L20.3437 27.4898H16.5507C12.9137 27.4898 12.7481 27.4801 12.5238 27.2558C12.2995 27.0315 12.29 26.8659 12.29 23.2289V19.4359L12.5981 19.1934C12.895 18.9598 13.0405 18.951 16.5803 18.951H20.2545L20.5415 19.2381ZM15.3236 20.9102C14.1085 21.5265 13.5898 22.946 14.0957 24.2707C14.8729 26.3058 17.8723 26.4223 18.8694 24.456C20.0564 22.1153 17.6643 19.7232 15.3236 20.9102ZM17.0856 22.694C17.511 23.1195 17.2767 23.8542 16.6585 24.0332C16.2959 24.1382 15.7697 23.6573 15.7697 23.2209C15.7697 22.563 16.6158 22.2243 17.0856 22.694ZM33.869 27.8863C29.4504 28.73 26.645 32.953 27.5599 37.3829L27.7411 38.2596L27.2675 39.608C26.3523 42.2146 26.9932 43.0806 29.2925 42.3442L30.4166 41.9841L31.1921 42.4518C37.1442 46.0416 44.5154 40.6853 42.9995 33.8716C42.1019 29.8371 37.9402 27.1089 33.869 27.8863ZM36.5168 29.7635C40.6429 30.638 42.6524 35.4241 40.3601 38.9172C38.4276 41.8616 34.8103 42.5743 31.7889 40.6058C30.9572 40.0639 30.3736 39.9841 29.4989 40.2927C28.9315 40.4929 28.9309 40.4903 29.3088 39.4426C29.6467 38.5059 29.6695 38.056 29.4259 37.1209C28.3266 32.9007 32.2267 28.8541 36.5168 29.7635ZM33.2145 32.6918C32.3908 33.147 32.0855 35.1643 32.6854 36.1881C33.2869 37.2143 35.2759 38.3085 36.3931 38.2278C38.0544 38.1075 39.5227 36.3477 38.6717 35.4969C38.2001 35.0252 37.7636 35.1079 37.0983 35.7945C36.4007 36.5144 36.228 36.523 35.1817 35.8909C34.1398 35.2613 34.0539 35.0745 34.3915 34.1717C34.8185 33.0301 34.1419 32.1795 33.2145 32.6918ZM51.6791 33.9218L52.1763 34.0491V35.0688V36.0887L51.3575 36.2732L50.5387 36.4575V35.0209V33.5843L50.8604 33.6894C51.0372 33.7474 51.4057 33.8519 51.6791 33.9218ZM20.0098 35.2009V36.7126L19.3695 36.4876C19.0172 36.3637 18.6487 36.2624 18.5506 36.2624C18.4033 36.2624 18.3723 36.0692 18.3723 35.1534V34.0444L18.6939 33.9717C18.8709 33.9315 19.1735 33.8564 19.3665 33.8044C20.0323 33.6257 20.0098 33.5768 20.0098 35.2009ZM17.6387 37.9677C24.7816 39.443 27.4497 48.213 22.2978 53.2814C16.8506 58.6403 7.86168 55.4322 6.89598 47.7847C6.15906 41.9484 11.8285 36.7675 17.6387 37.9677ZM16.7729 41.413C15.6378 41.6403 14.3953 42.8626 14.3953 43.752C14.3953 44.2589 13.1459 43.7467 12.1232 42.8206C10.3948 41.2554 9.2135 42.5536 9.49872 45.7051C9.59199 46.7365 10.0747 47.8356 10.7618 48.5809L11.2421 49.1021L10.8489 49.1757C9.5607 49.4174 9.589 51.2332 10.8913 51.9035C12.6053 52.7855 16.087 52.3766 18.07 51.0604C19.3707 50.1971 20.5687 48.4596 20.9748 46.848C21.0558 46.5264 21.2904 46.0205 21.4961 45.7239C22.878 43.7315 22.5657 41.7507 20.8959 41.9167C20.5693 41.9492 20.1291 42.0124 19.9174 42.0573C19.6411 42.1158 19.4752 42.0866 19.3283 41.9538C18.8209 41.4946 17.627 41.2419 16.7729 41.413ZM51.0534 42.6255L50.6557 43.0233V46.9025C50.6557 50.9351 50.6736 51.0957 51.1664 51.495C51.7662 51.9809 52.1616 51.8352 55.5276 49.8889C59.1306 47.8052 59.2334 47.7242 59.2334 46.9651C59.2334 46.2125 59.1543 46.1505 55.513 44.0489C51.9164 41.9731 51.7568 41.9221 51.0534 42.6255ZM18.3386 43.6003C18.6781 43.8596 18.9226 43.9355 19.5696 43.9824L20.3769 44.0408L19.8887 44.7216C19.5702 45.1655 19.3428 45.6495 19.2346 46.1131C18.6162 48.7636 16.2932 50.5341 13.4365 50.5322L12.8162 50.5317L13.2257 50.2859C14.4971 49.5226 14.5238 48.8366 13.3086 48.1457C12.0868 47.4507 11.444 46.5462 11.2852 45.2983C11.1953 44.5921 11.2016 44.5877 11.7671 44.9714C12.7472 45.6367 14.7406 46.1066 15.5076 45.8534C16.0103 45.6876 16.1499 45.4455 16.1499 44.7391C16.1499 43.3768 17.2777 42.79 18.3386 43.6003ZM54.6952 45.7558C55.8238 46.4095 56.7056 46.984 56.6549 47.0325C56.5429 47.1394 52.899 49.2454 52.6814 49.3288C52.5567 49.3765 52.5272 48.925 52.5272 46.9775C52.5272 45.6519 52.5533 44.5672 52.5853 44.5672C52.6172 44.5672 53.5667 45.102 54.6952 45.7558ZM20.0104 58.3403C20.0113 59.8774 20.1341 60.3526 20.6901 60.9693C21.5714 61.9467 20.3862 61.8732 35.2825 61.876L48.5083 61.8786L49.1427 61.557C50.2439 60.9985 50.4723 60.5296 50.5183 58.7343L50.5563 57.2468L51.3371 57.4439L52.1178 57.6411V59.2041C52.1178 61.3685 51.5723 62.3956 50.0124 63.168L49.4274 63.4577H35.3912C19.4235 63.4577 20.7535 63.5435 19.5836 62.437C18.6355 61.5405 18.443 60.9782 18.4363 59.0865L18.4307 57.5225L19.0741 57.3147C20.0661 56.9943 20.0097 56.9326 20.0104 58.3403Z" fill="black"/>
</svg>
