<svg width="71" height="71" viewBox="0 0 71 71" fill="none" xmlns="http://www.w3.org/2000/svg">
<path opacity="0.3" d="M8 6H40L44 10L48 13.5V60H8V6Z" fill="white"/>
<path fill-rule="evenodd" clip-rule="evenodd" d="M10.125 4.36724C8.89986 4.74212 7.7637 5.70452 7.1645 6.87508L6.8125 7.5626V32.7501V57.9375L7.16402 58.605C8.10882 60.3987 9.37506 61.1603 11.5271 61.2291C13.1346 61.2807 13.0234 61.217 13.1869 62.1807C13.396 63.4138 14.4315 64.7024 15.7229 65.3365L16.4375 65.6875H33.4375H50.4375L51.1549 65.3352C52.069 64.8864 52.8864 64.069 53.3352 63.1549L53.6875 62.4375V40.8125V19.1876L53.3538 18.4754C52.6899 17.0594 51.2066 16.0074 49.7187 15.898L49 15.845V14.6036V13.3623L46.9688 11.3933C45.8515 10.3104 43.7282 8.26068 42.2501 6.83828L39.5626 4.2522L25 4.2618C16.9906 4.26724 10.2968 4.3146 10.125 4.36724ZM38.3751 9.97508C38.3751 13.0944 38.4143 14.2392 38.525 14.35C38.636 14.461 39.8227 14.5 43.0899 14.5H47.5048L47.4712 35.8437C47.4403 55.3818 47.42 57.2259 47.2309 57.6424C46.9266 58.3127 46.1895 59.0709 45.5234 59.3989L44.9375 59.6875H27.8751H10.8125L10.2267 59.3989C9.5605 59.0709 8.82354 58.3127 8.51906 57.6424C8.23058 57.0072 8.19778 8.7626 8.4853 7.94804C8.68354 7.38676 9.50514 6.4434 10.0343 6.1698C10.7469 5.80132 11.628 5.77716 24.9063 5.76372L38.3751 5.75012V9.97508ZM43.1301 10L46.2317 13H43.0533H39.8751V10C39.8751 8.35012 39.9096 7.00004 39.9519 7.00004C39.9941 7.00004 41.4243 8.35012 43.1301 10ZM10.2069 8.22868C9.68354 8.80692 9.99714 10.125 10.6583 10.125C11.3432 10.125 11.5 9.94148 11.5 9.14004C11.5 8.10404 10.7794 7.59604 10.2069 8.22868ZM10.3751 11.2877L10.0626 11.445V16.5007V21.5565L10.4063 21.6775C10.6275 21.7552 10.8725 21.7552 11.0938 21.6775L11.4375 21.5565L11.4701 16.5448C11.4957 12.6298 11.4683 11.5053 11.3451 11.4068C11.0543 11.174 10.6899 11.1293 10.3751 11.2877ZM19.389 12.1306C15.3551 13.1871 12.3751 16.9183 12.3751 20.9128C12.3751 21.7183 12.5202 21.8821 13.5056 22.1888L14.1987 22.4045L14.0282 23.3586C11.9803 34.8055 26.5986 42.1413 34.6965 33.7307C43.0776 25.0261 34.8405 10.5359 23.1696 13.4535C22.9379 13.5114 22.8725 13.4304 22.6843 12.854C22.5648 12.4874 22.4112 12.1172 22.3432 12.0312C22.1546 11.7933 20.4595 11.8503 19.389 12.1306ZM22.9591 18.8125C23.9325 21.7344 24.6914 24.125 24.6456 24.125C24.6 24.125 22.1821 23.3316 19.2725 22.3616L13.9826 20.5984L14.0655 20.0805C14.5464 17.073 16.9104 14.4757 19.8751 13.697C21.2751 13.3293 20.9565 12.8012 22.9591 18.8125ZM27.8925 14.9471C36.0096 16.4781 39.2944 26.3146 33.6994 32.3362C27.3712 39.1467 16.0792 35.0895 15.5431 25.8125C15.4803 24.7292 15.6224 23.2111 15.8032 23.0301C15.8331 23.0004 18.1453 23.7368 20.9416 24.6668C27.921 26.9879 27.5234 27.3828 25.2059 20.4303C24.2677 17.6156 23.5 15.2485 23.5 15.1704C23.5 14.7908 26.3066 14.648 27.8925 14.9471ZM50.7149 17.9528C52.3778 18.9786 52.2731 17.336 52.2261 41.6875L52.1875 61.6875L51.8341 62.4074C51.4639 63.1613 51.0063 63.5923 50.1808 63.965C49.5925 64.2304 18.7717 64.3821 17.3872 64.1264C16.0765 63.8842 15.0277 62.9186 14.7531 61.7013L14.652 61.253L30.1099 61.2202L45.5679 61.1875L46.393 60.7813C47.3712 60.2997 48.1394 59.5151 48.605 58.5219L48.9375 57.8125L48.9699 37.6138L49.0023 17.4151L49.5597 17.4996C49.8663 17.5461 50.3861 17.7501 50.7149 17.9528ZM59.4375 32.4581C58.5776 32.8183 57.8811 33.3695 57.4376 34.0407C56.6053 35.3002 56.625 34.9805 56.625 47.2146V58.2517L58.4525 61.9071C60.4021 65.8069 60.3621 65.7451 60.9495 65.7482C61.4973 65.7507 61.5315 65.6971 63.4869 61.7821L65.2501 58.2517V46.9431C65.2501 34.0279 65.3181 34.8466 64.1405 33.5875C63.0125 32.3818 60.8562 31.8639 59.4375 32.4581ZM62.4671 34.2896C63.3874 34.9274 63.625 35.5834 63.625 37.4856V39.125H60.9375H58.2501L58.253 37.7813C58.2567 36.1685 58.3704 35.6167 58.8355 34.9563C59.625 33.8355 61.3538 33.5183 62.4671 34.2896ZM60.125 48.9375V57.125H59.1875H58.2501V48.9375V40.7501H59.1875H60.125V48.9375ZM63.625 49.0146V57.2792L63.3437 57.2039C63.1891 57.1624 62.7672 57.1277 62.4063 57.1267L61.7501 57.125V48.9375V40.7501H62.6875H63.625V49.0146ZM14.9447 42.2778C14.8376 42.4306 14.7501 42.6431 14.7501 42.7501C14.7501 42.857 14.8376 43.0695 14.9447 43.2223L15.1392 43.5H23.3731C32.4258 43.5 32 43.537 32 42.7501C32 41.9631 32.4258 42 23.3731 42H15.1392L14.9447 42.2778ZM14.945 47.0272C14.6919 47.3887 14.6986 47.6597 14.9688 47.9883L15.1875 48.2544L27.9327 48.221L40.6779 48.1875L40.8703 47.8437C41.0432 47.5344 41.0432 47.4656 40.8703 47.1563L40.6779 46.8125L27.909 46.7807L15.14 46.7488L14.945 47.0272ZM14.9451 51.6522C14.6919 52.0138 14.6986 52.2847 14.9688 52.6135L15.1875 52.8795L26.1858 52.8461L37.1842 52.8125L37.349 52.4688C37.4853 52.1843 37.4853 52.0658 37.349 51.7813L37.1842 51.4375L26.1621 51.4056L15.1402 51.3736L14.9451 51.6522ZM62.0491 60.9063C61.4567 62.0922 60.9621 63.0739 60.9501 63.0879C60.9381 63.1019 60.4384 62.1315 59.8397 60.9317L58.7509 58.7501H60.9387H63.1264L62.0491 60.9063Z" fill="black"/>
</svg>
