<svg width="120" height="33" viewBox="0 0 120 33" fill="none" xmlns="http://www.w3.org/2000/svg">
<path d="M119.01 17.415L113.024 24.315C112.869 24.4887 112.679 24.6279 112.467 24.7238C112.254 24.8198 112.024 24.8702 111.791 24.872H93.8613C93.5531 24.8698 93.2519 24.7791 92.9937 24.6107C92.7354 24.4423 92.531 24.2033 92.4046 23.9221C92.2782 23.6409 92.2353 23.3293 92.2808 23.0244C92.3263 22.7195 92.4583 22.4341 92.6613 22.202L95.7133 18.68H111.794C112.027 18.6782 112.257 18.6278 112.47 18.5318C112.682 18.4359 112.872 18.2967 113.027 18.123L115.961 14.748H117.81C118.118 14.7508 118.419 14.8417 118.676 15.0099C118.934 15.1782 119.138 15.4167 119.264 15.6974C119.39 15.978 119.434 16.2889 119.389 16.5934C119.344 16.8978 119.212 17.1829 119.01 17.415V17.415Z" fill="url(#paint0_linear_386_3674)"/>
<path d="M119.01 11.252L115.958 14.744H99.8773C99.6443 14.7458 99.4141 14.7963 99.2017 14.8924C98.9894 14.9885 98.7995 15.1281 98.6443 15.302L95.7104 18.678H93.8614C93.5525 18.677 93.2505 18.587 92.9915 18.4189C92.7324 18.2507 92.5274 18.0115 92.4008 17.7298C92.2742 17.4481 92.2314 17.1359 92.2776 16.8305C92.3238 16.5252 92.4571 16.2396 92.6613 16.008L95.7133 12.516H111.794C112.027 12.514 112.257 12.4633 112.47 12.3673C112.682 12.2712 112.872 12.1318 113.027 11.958L115.961 8.58301H117.81C118.118 8.58584 118.419 8.67686 118.677 8.84529C118.934 9.01371 119.139 9.25248 119.265 9.53333C119.391 9.81417 119.434 10.1253 119.389 10.4299C119.344 10.7345 119.213 11.0198 119.01 11.252V11.252Z" fill="url(#paint1_linear_386_3674)"/>
<path d="M115.958 14.744L113.024 18.119C112.869 18.2926 112.679 18.4319 112.467 18.5278C112.254 18.6237 112.024 18.6742 111.791 18.676H95.7103L98.6443 15.302C98.7994 15.1281 98.9894 14.9885 99.2017 14.8924C99.4141 14.7963 99.6442 14.7458 99.8773 14.744H115.958Z" fill="url(#paint2_linear_386_3674)"/>
<path d="M119.01 5.08902L115.958 8.57802H99.8773C99.6443 8.58001 99.4142 8.63068 99.2019 8.72677C98.9895 8.82286 98.7996 8.96226 98.6443 9.13602L95.7104 12.511H93.8614C93.5531 12.5085 93.252 12.4176 92.9938 12.2491C92.7356 12.0805 92.5313 11.8415 92.4049 11.5603C92.2786 11.2791 92.2356 10.9675 92.281 10.6626C92.3265 10.3576 92.4585 10.0722 92.6613 9.84002L98.6474 2.97301C98.8027 2.79939 98.9926 2.66015 99.205 2.56423C99.4173 2.46831 99.6473 2.41782 99.8803 2.41602H117.81C118.12 2.4165 118.422 2.5063 118.682 2.67461C118.942 2.84292 119.147 3.0826 119.274 3.36486C119.401 3.64712 119.443 3.95995 119.396 4.2658C119.35 4.57164 119.216 4.85749 119.01 5.08902V5.08902Z" fill="url(#paint3_linear_386_3674)"/>
<path d="M115.958 8.578L113.024 11.953C112.869 12.1268 112.679 12.2662 112.467 12.3622C112.254 12.4583 112.024 12.509 111.791 12.511H95.7103L98.6443 9.136C98.7996 8.96224 98.9895 8.82285 99.2018 8.72676C99.4142 8.63067 99.6443 8.58 99.8773 8.578H115.958Z" fill="url(#paint4_linear_386_3674)"/>
<path d="M51.3113 31.671H51.6063C51.6178 31.6713 51.6287 31.676 51.6368 31.6843C51.6448 31.6925 51.6493 31.7035 51.6493 31.715V32.029C51.6485 32.0404 51.6435 32.0511 51.6351 32.0589C51.6268 32.0667 51.6157 32.071 51.6043 32.071H51.3113C51.3004 32.071 51.2899 32.0669 51.2819 32.0595C51.2739 32.0521 51.2691 32.0419 51.2683 32.031V31.714C51.2683 31.7026 51.2728 31.6917 51.2809 31.6836C51.289 31.6756 51.2999 31.671 51.3113 31.671V31.671Z" fill="black"/>
<path d="M51.8393 31.671H52.1343C52.1458 31.6713 52.1568 31.676 52.1648 31.6843C52.1728 31.6925 52.1773 31.7035 52.1773 31.715V32.029C52.1766 32.0404 52.1715 32.0511 52.1631 32.0589C52.1548 32.0667 52.1438 32.071 52.1323 32.071H51.8393C51.8284 32.071 51.8179 32.0669 51.8099 32.0595C51.802 32.0521 51.7971 32.0419 51.7963 32.031V31.714C51.7963 31.7026 51.8009 31.6917 51.8089 31.6836C51.817 31.6756 51.8279 31.671 51.8393 31.671V31.671Z" fill="black"/>
<path d="M56.8133 27.86H57.1133C57.1238 27.8613 57.1335 27.8663 57.1405 27.8743C57.1476 27.8822 57.1514 27.8925 57.1513 27.903V28.218C57.1506 28.2295 57.1455 28.2401 57.1371 28.2479C57.1288 28.2557 57.1178 28.2601 57.1063 28.26H56.8143C56.8032 28.2601 56.7924 28.2559 56.7842 28.2482C56.7761 28.2406 56.7711 28.2302 56.7703 28.219V27.903C56.7703 27.8916 56.7749 27.8807 56.7829 27.8726C56.791 27.8646 56.8019 27.86 56.8133 27.86V27.86Z" fill="black"/>
<path d="M60.2233 27.86H60.5173C60.5286 27.8603 60.5393 27.865 60.5471 27.873C60.555 27.881 60.5593 27.8918 60.5593 27.903V28.22C60.5586 28.2308 60.5539 28.2408 60.5461 28.2482C60.5383 28.2556 60.5281 28.2598 60.5173 28.26H60.2223C60.2112 28.2601 60.2004 28.2559 60.1922 28.2482C60.1841 28.2406 60.1791 28.2302 60.1783 28.219V27.905C60.1783 27.8931 60.1831 27.8817 60.1915 27.8732C60.2 27.8648 60.2114 27.86 60.2233 27.86V27.86Z" fill="black"/>
<path d="M59.6953 27.86H59.9893C60.0006 27.8603 60.0112 27.865 60.0191 27.873C60.0269 27.881 60.0313 27.8918 60.0313 27.903V28.22C60.0306 28.2308 60.0259 28.2408 60.0181 28.2482C60.0103 28.2556 60.0001 28.2598 59.9893 28.26H59.6943C59.6832 28.2601 59.6724 28.2559 59.6642 28.2482C59.6561 28.2406 59.6511 28.2302 59.6503 28.219V27.905C59.6503 27.8931 59.6551 27.8817 59.6635 27.8732C59.6719 27.8648 59.6834 27.86 59.6953 27.86V27.86Z" fill="black"/>
<path d="M62.0183 27.86H62.3183C62.3289 27.8613 62.3386 27.8663 62.3456 27.8743C62.3526 27.8822 62.3564 27.8925 62.3563 27.903V28.22C62.3556 28.2308 62.3509 28.2408 62.3431 28.2482C62.3353 28.2556 62.3251 28.2598 62.3143 28.26H62.0193C62.0082 28.2601 61.9974 28.2559 61.9892 28.2482C61.9811 28.2406 61.9761 28.2302 61.9753 28.219V27.903C61.9753 27.8916 61.9799 27.8807 61.9879 27.8726C61.996 27.8646 62.0069 27.86 62.0183 27.86V27.86Z" fill="black"/>
<path d="M62.5463 27.86H62.8463C62.8568 27.8613 62.8665 27.8663 62.8735 27.8743C62.8805 27.8822 62.8844 27.8925 62.8843 27.903V28.22C62.8835 28.2308 62.8788 28.2408 62.8711 28.2482C62.8633 28.2556 62.853 28.2598 62.8423 28.26H62.5473C62.5361 28.2601 62.5254 28.2559 62.5172 28.2482C62.509 28.2406 62.5041 28.2302 62.5033 28.219V27.903C62.5033 27.8916 62.5078 27.8807 62.5159 27.8726C62.524 27.8646 62.5349 27.86 62.5463 27.86V27.86Z" fill="black"/>
<path d="M63.5863 27.518C63.5804 27.5172 63.5743 27.5177 63.5686 27.5196C63.5629 27.5216 63.5578 27.5248 63.5536 27.5291C63.5494 27.5334 63.5463 27.5386 63.5445 27.5443C63.5427 27.5501 63.5423 27.5561 63.5433 27.5621V29.8961C63.5471 29.9278 63.5445 29.9599 63.5357 29.9906C63.527 30.0214 63.5122 30.0501 63.4923 30.0751C63.4709 30.0935 63.4459 30.1075 63.4189 30.1161C63.392 30.1247 63.3635 30.1277 63.3353 30.125H63.0113C62.9114 30.1303 62.8123 30.1048 62.7273 30.052C62.6923 30.0272 62.6643 29.9939 62.6458 29.9552C62.6272 29.9166 62.6188 29.8738 62.6213 29.831V28.7311C62.622 28.7251 62.6213 28.719 62.6193 28.7133C62.6172 28.7076 62.6139 28.7025 62.6095 28.6983C62.6051 28.6942 62.5999 28.6911 62.5941 28.6893C62.5884 28.6875 62.5822 28.6871 62.5763 28.6881H62.2973C62.2915 28.6872 62.2855 28.6877 62.2799 28.6896C62.2743 28.6915 62.2692 28.6946 62.2651 28.6988C62.2609 28.703 62.2577 28.7081 62.2559 28.7137C62.254 28.7193 62.2535 28.7252 62.2543 28.7311V29.892C62.2613 29.9558 62.2437 30.0197 62.2053 30.071C62.1835 30.0896 62.1582 30.1036 62.1309 30.1122C62.1035 30.1208 62.0748 30.1238 62.0463 30.121H61.7533C61.7463 30.121 61.7443 30.121 61.7383 30.126C61.7323 30.131 61.7293 30.121 61.7223 30.121H60.6393C60.6177 30.1191 60.596 30.1191 60.5743 30.121C60.6929 30.0405 60.79 29.9321 60.8571 29.8054C60.9242 29.6787 60.9593 29.5374 60.9593 29.3941C60.961 29.2856 60.9437 29.1776 60.9083 29.0751C60.8754 28.9808 60.821 28.8955 60.7493 28.8261C60.6734 28.7539 60.5831 28.6987 60.4843 28.664C60.2359 28.5867 59.9698 28.5867 59.7213 28.664C59.6218 28.6985 59.5308 28.7537 59.4543 28.8261C59.3846 28.8967 59.331 28.9817 59.2973 29.0751C59.2617 29.1776 59.2438 29.2855 59.2443 29.3941C59.243 29.5366 59.2774 29.6772 59.3443 29.803C59.4111 29.9286 59.5072 30.0363 59.6243 30.1171H57.5293C57.4297 30.1221 57.331 30.0967 57.2463 30.044C57.2113 30.0193 57.183 29.9861 57.1645 29.9474C57.1459 29.9087 57.1376 29.8659 57.1403 29.823V28.723C57.1412 28.7172 57.1406 28.7113 57.1387 28.7057C57.1369 28.7001 57.1338 28.695 57.1296 28.6908C57.1254 28.6866 57.1203 28.6835 57.1147 28.6816C57.1091 28.6797 57.1031 28.6792 57.0973 28.68H56.8193C56.8135 28.6792 56.8076 28.6797 56.802 28.6815C56.7964 28.6834 56.7914 28.6866 56.7873 28.6908C56.7832 28.695 56.7801 28.7001 56.7784 28.7057C56.7766 28.7113 56.7763 28.7173 56.7773 28.723V29.8841C56.7834 29.948 56.7652 30.0119 56.7263 30.0631C56.7048 30.0814 56.6799 30.0953 56.6529 30.1039C56.6259 30.1125 56.5975 30.1156 56.5693 30.113H56.2973C56.2913 30.113 56.2893 30.1131 56.2833 30.1181C56.2773 30.1231 56.2743 30.113 56.2673 30.113H53.0323C52.9495 30.1132 52.867 30.1038 52.7863 30.085C52.703 30.0661 52.6212 30.0413 52.5413 30.011C52.4593 29.981 52.3743 29.9481 52.2883 29.9111C52.2023 29.8741 52.1133 29.84 52.0193 29.805C51.9943 29.797 51.9763 29.805 51.9683 29.836L51.8683 30.096C51.8659 30.1011 51.8647 30.1066 51.8648 30.1122C51.8649 30.1178 51.8662 30.1234 51.8687 30.1284C51.8712 30.1334 51.8748 30.1377 51.8792 30.1411C51.8836 30.1446 51.8888 30.1469 51.8943 30.1481C52.0413 30.2031 52.1723 30.248 52.2863 30.291C52.3841 30.3237 52.4793 30.3634 52.5713 30.4101C52.637 30.4406 52.6961 30.4838 52.7453 30.5371C52.7845 30.583 52.8055 30.6417 52.8043 30.7021C52.8036 30.7388 52.7941 30.7748 52.7767 30.8071C52.7593 30.8394 52.7345 30.8672 52.7043 30.888C52.5941 30.9505 52.4674 30.9777 52.3413 30.9661H51.3853C51.2943 30.9665 51.2035 30.9555 51.1153 30.933C51.0329 30.9134 50.9554 30.8774 50.8873 30.8271C50.8186 30.775 50.7645 30.7061 50.7303 30.627C50.6876 30.533 50.6674 30.4303 50.6713 30.3271C50.6711 30.1997 50.6952 30.0734 50.7423 29.955C50.7828 29.8507 50.8326 29.7503 50.8913 29.655C50.8947 29.6508 50.8972 29.6458 50.8984 29.6404C50.8997 29.6351 50.8997 29.6296 50.8986 29.6242C50.8974 29.6189 50.8951 29.6138 50.8918 29.6095C50.8885 29.6051 50.8842 29.6016 50.8793 29.599L50.6403 29.469C50.6123 29.451 50.5913 29.454 50.5793 29.469C50.4943 29.5924 50.427 29.727 50.3793 29.8691C50.3224 30.0265 50.2936 30.1927 50.2943 30.36C50.287 30.488 50.3069 30.6161 50.3525 30.7359C50.3982 30.8556 50.4687 30.9644 50.5593 31.055C50.7724 31.2372 51.0487 31.3281 51.3283 31.308H52.3393C52.4681 31.3114 52.5967 31.2945 52.7203 31.2581C52.8121 31.2319 52.8974 31.1874 52.9713 31.127C53.0307 31.0773 53.0771 31.0138 53.1063 30.942C53.1341 30.8772 53.1487 30.8076 53.1493 30.737C53.1497 30.6773 53.1392 30.618 53.1183 30.5621C53.1047 30.5223 53.0876 30.4838 53.0673 30.447H56.2613C56.2673 30.447 56.2693 30.447 56.2753 30.447C56.2813 30.447 56.2843 30.447 56.2913 30.447H56.6283C56.7174 30.4587 56.8081 30.4435 56.8885 30.4032C56.9689 30.3629 57.0353 30.2995 57.0793 30.221C57.1137 30.2933 57.17 30.3528 57.2403 30.391C57.315 30.4298 57.3982 30.449 57.4823 30.447H59.5073C59.5913 30.447 59.6873 30.447 59.7953 30.433C59.9026 30.4253 60.0069 30.3946 60.1013 30.3431C60.1805 30.3937 60.2707 30.4245 60.3643 30.433C60.464 30.4431 60.5641 30.4477 60.6643 30.447H61.7203C61.7273 30.447 61.7283 30.447 61.7343 30.447C61.7403 30.447 61.7433 30.447 61.7513 30.447H62.1103C62.1993 30.4588 62.2898 30.4436 62.3701 30.4033C62.4503 30.363 62.5166 30.2995 62.5603 30.221C62.5945 30.2927 62.6501 30.3521 62.7193 30.391C62.7945 30.4294 62.878 30.4487 62.9623 30.447H63.3963C63.467 30.4539 63.5384 30.4455 63.6057 30.4226C63.6729 30.3997 63.7345 30.3627 63.7863 30.3141C63.8732 30.1947 63.9144 30.0482 63.9023 29.901V27.5621C63.9034 27.5561 63.9029 27.5501 63.9011 27.5443C63.8993 27.5386 63.8962 27.5334 63.892 27.5291C63.8878 27.5248 63.8827 27.5216 63.877 27.5196C63.8713 27.5177 63.8653 27.5172 63.8593 27.518H63.5863ZM60.1053 30.052C59.9746 30.002 59.8582 29.9206 59.7663 29.8151C59.673 29.7066 59.6238 29.5671 59.6283 29.4241C59.6238 29.3593 59.6334 29.2944 59.6566 29.2338C59.6797 29.1731 59.7158 29.1183 59.7623 29.073C59.857 28.9904 59.9797 28.9471 60.1053 28.9521C60.23 28.9468 60.3519 28.9902 60.4453 29.073C60.492 29.1182 60.5283 29.173 60.5516 29.2336C60.575 29.2942 60.5847 29.3592 60.5803 29.4241C60.5856 29.5673 60.5358 29.7072 60.4413 29.8151C60.3503 29.9203 60.235 30.0017 60.1053 30.052V30.052Z" fill="black"/>
<path d="M64.5573 27.5181H64.8343C64.8457 27.5181 64.8567 27.5226 64.8647 27.5307C64.8728 27.5387 64.8773 27.5497 64.8773 27.5611V30.4181C64.8773 30.4237 64.8762 30.4293 64.8741 30.4345C64.8719 30.4397 64.8687 30.4445 64.8647 30.4485C64.8608 30.4525 64.856 30.4556 64.8508 30.4578C64.8456 30.46 64.84 30.4611 64.8343 30.4611H64.5583C64.5468 30.4611 64.5358 30.4566 64.5276 30.4485C64.5194 30.4405 64.5146 30.4296 64.5143 30.4181V27.5611C64.5143 27.5497 64.5189 27.5387 64.5269 27.5307C64.535 27.5226 64.5459 27.5181 64.5573 27.5181V27.5181Z" fill="black"/>
<path d="M66.7553 28.692C66.7495 28.6912 66.7435 28.6917 66.7379 28.6936C66.7323 28.6955 66.7272 28.6986 66.7231 28.7028C66.7189 28.707 66.7157 28.712 66.7139 28.7176C66.712 28.7232 66.7115 28.7292 66.7123 28.735V30.619C66.7123 30.863 66.5963 30.987 66.3623 30.987H66.2623C66.2565 30.9862 66.2505 30.9867 66.2449 30.9886C66.2393 30.9905 66.2342 30.9936 66.23 30.9978C66.2259 31.002 66.2227 31.007 66.2209 31.0126C66.219 31.0182 66.2184 31.0242 66.2193 31.03V31.278C66.2184 31.2838 66.2189 31.2898 66.2208 31.2953C66.2227 31.3009 66.2258 31.306 66.23 31.3101C66.2342 31.3142 66.2394 31.3172 66.245 31.3189C66.2506 31.3207 66.2565 31.3211 66.2623 31.32H66.3803C66.4744 31.3267 66.5689 31.3141 66.658 31.283C66.7471 31.2519 66.8288 31.2029 66.8983 31.139C67.0254 30.9917 67.0891 30.8001 67.0753 30.606V28.735C67.0761 28.7292 67.0756 28.7232 67.0737 28.7176C67.0719 28.712 67.0687 28.707 67.0646 28.7028C67.0604 28.6986 67.0553 28.6955 67.0497 28.6936C67.0441 28.6917 67.0381 28.6912 67.0323 28.692H66.7553Z" fill="black"/>
<path d="M80.2353 27.5181C80.2294 27.5174 80.2234 27.5181 80.2178 27.5201C80.2122 27.5221 80.2072 27.5253 80.2031 27.5296C80.1989 27.5338 80.1958 27.5389 80.1939 27.5446C80.192 27.5502 80.1915 27.5562 80.1923 27.5621V29.8961C80.196 29.9278 80.1934 29.9599 80.1847 29.9907C80.1759 30.0214 80.1612 30.0501 80.1413 30.0751C80.1199 30.0936 80.095 30.1077 80.068 30.1163C80.041 30.1249 80.0125 30.1279 79.9843 30.1251H79.5843C79.5161 30.1231 79.4514 30.0944 79.4043 30.0451C79.3375 29.9601 79.3064 29.8526 79.3173 29.7451L79.3233 29.6541C79.3233 29.6221 79.3233 29.5911 79.3233 29.5541C79.3471 29.2937 79.267 29.0345 79.1003 28.8331C78.9311 28.6898 78.7165 28.6111 78.4948 28.6111C78.2731 28.6111 78.0586 28.6898 77.8893 28.8331C77.7248 29.0355 77.6458 29.2942 77.6693 29.5541V29.6441C77.6674 29.672 77.6674 29.7001 77.6693 29.7281C77.671 29.7917 77.6625 29.8551 77.6443 29.9161C77.632 29.9607 77.6105 30.0022 77.5813 30.0381C77.5586 30.0662 77.5295 30.0885 77.4963 30.1031C77.4645 30.1155 77.4305 30.1219 77.3963 30.1221H77.1373C77.0374 30.1272 76.9384 30.1017 76.8533 30.0491C76.8184 30.0242 76.7903 29.9909 76.7718 29.9522C76.7532 29.9136 76.7448 29.8709 76.7473 29.8281C76.7473 29.8041 76.7473 29.7771 76.7473 29.7431C76.7473 29.7091 76.7473 29.6751 76.7473 29.6371C76.7479 29.5043 76.7321 29.372 76.7003 29.2431C76.6705 29.1188 76.6107 29.0036 76.5262 28.9078C76.4416 28.8119 76.3349 28.7382 76.2153 28.6931C76.0553 28.6346 75.8857 28.6068 75.7153 28.6111C75.5345 28.6107 75.3545 28.637 75.1813 28.6891C75.018 28.7371 74.8595 28.8008 74.7083 28.8791V27.5591C74.7093 27.5531 74.7089 27.5471 74.7071 27.5413C74.7054 27.5356 74.7022 27.5304 74.6981 27.5261C74.6939 27.5218 74.6887 27.5186 74.683 27.5166C74.6773 27.5147 74.6713 27.5142 74.6653 27.5151H74.3883C74.3824 27.5142 74.3763 27.5147 74.3706 27.5166C74.3649 27.5186 74.3598 27.5218 74.3556 27.5261C74.3514 27.5304 74.3483 27.5356 74.3465 27.5413C74.3447 27.5471 74.3443 27.5531 74.3453 27.5591V29.8931C74.349 29.9248 74.3464 29.9569 74.3376 29.9876C74.3289 30.0183 74.3142 30.047 74.2943 30.0721C74.2728 30.0904 74.2478 30.1043 74.2209 30.1129C74.1939 30.1215 74.1655 30.1246 74.1373 30.1221H69.5373H69.5323H69.5273H69.2273V29.5541C69.2501 29.2949 69.1728 29.0369 69.0113 28.8331C68.9319 28.7568 68.8377 28.6977 68.7345 28.6595C68.6312 28.6213 68.5212 28.6048 68.4113 28.6111C68.3013 28.6103 68.1921 28.6299 68.0893 28.6691C67.9888 28.708 67.8983 28.7688 67.8243 28.8471C67.7433 28.933 67.6815 29.0353 67.6433 29.1471C67.5957 29.286 67.5727 29.4322 67.5753 29.5791C67.5724 29.7197 67.5909 29.86 67.6303 29.9951C67.6627 30.0973 67.7197 30.19 67.7963 30.2651C67.8707 30.3348 67.961 30.3853 68.0593 30.4121C68.1705 30.4437 68.2857 30.4591 68.4013 30.4581H68.8663V30.5781C68.868 30.646 68.8578 30.7136 68.8363 30.7781C68.8188 30.8264 68.7892 30.8694 68.7503 30.9031C68.7141 30.9345 68.6709 30.9568 68.6243 30.9681C68.5714 30.9817 68.517 30.9884 68.4623 30.9881H67.9423C67.9365 30.9872 67.9305 30.9877 67.925 30.9895C67.9194 30.9914 67.9144 30.9946 67.9103 30.9988C67.9062 31.003 67.9032 31.0081 67.9014 31.0137C67.8997 31.0193 67.8993 31.0253 67.9003 31.0311V31.2781C67.8995 31.2838 67.9 31.2896 67.9018 31.2951C67.9036 31.3006 67.9067 31.3055 67.9108 31.3096C67.9148 31.3137 67.9198 31.3168 67.9253 31.3186C67.9308 31.3204 67.9366 31.3209 67.9423 31.3201H68.4813C68.5848 31.3212 68.6879 31.3071 68.7873 31.2781C68.875 31.2512 68.9557 31.205 69.0233 31.1431C69.0922 31.0787 69.144 30.9983 69.1743 30.9091C69.2137 30.7981 69.2324 30.6808 69.2293 30.5631V30.4631H69.5293H69.5353H74.1953C74.295 30.4672 74.3943 30.448 74.4853 30.4071C74.5036 30.4273 74.5265 30.443 74.5521 30.4527C74.5776 30.4625 74.6051 30.466 74.6323 30.4631H76.0903C76.2092 30.4665 76.3275 30.4461 76.4383 30.4031C76.5305 30.3605 76.6049 30.2869 76.6483 30.1951C76.6786 30.2797 76.7382 30.3506 76.8163 30.3951C76.8987 30.4423 76.9923 30.4665 77.0873 30.4651H77.3583C77.4478 30.4636 77.5368 30.4512 77.6233 30.4281C77.721 30.4027 77.8047 30.3398 77.8563 30.2531C77.928 30.3353 78.0191 30.3982 78.1213 30.4361C78.2364 30.4775 78.358 30.4975 78.4803 30.4951C78.6009 30.4968 78.721 30.4778 78.8353 30.4391C78.9376 30.4017 79.0287 30.3391 79.1003 30.2571C79.1252 30.3006 79.1593 30.3381 79.2003 30.3671C79.2391 30.3939 79.2815 30.4151 79.3263 30.4301C79.3711 30.4435 79.4169 30.4532 79.4633 30.4591C79.5103 30.4591 79.5533 30.4651 79.5933 30.4651H80.0243C80.0948 30.4717 80.166 30.4633 80.2331 30.4404C80.3002 30.4175 80.3616 30.3805 80.4133 30.3321C80.5007 30.213 80.5419 30.0662 80.5293 29.9191V27.5621C80.5293 27.5331 80.5153 27.5181 80.4873 27.5181H80.2353ZM68.8863 30.1251H68.4483C68.316 30.135 68.1851 30.093 68.0833 30.0081C68.0351 29.9494 67.9992 29.8816 67.9778 29.8087C67.9563 29.7359 67.9497 29.6595 67.9583 29.5841C67.9501 29.4211 67.9954 29.2599 68.0873 29.1251C68.1259 29.0701 68.1775 29.0255 68.2375 28.9953C68.2976 28.9651 68.3642 28.9503 68.4313 28.9521C68.4981 28.9458 68.5654 28.9573 68.6263 28.9854C68.6873 29.0135 68.7397 29.0572 68.7783 29.1121C68.8574 29.2465 68.8949 29.4013 68.8863 29.5571V30.1251ZM76.3633 29.8761C76.3567 29.9307 76.336 29.9827 76.3033 30.0271C76.2725 30.0647 76.2304 30.0917 76.1833 30.1041C76.1178 30.1196 76.0506 30.1266 75.9833 30.1251H74.6973C74.7128 30.0568 74.7205 29.987 74.7203 29.9171V29.2171C74.7833 29.1851 74.8523 29.1541 74.9303 29.1171C75.0098 29.084 75.0909 29.055 75.1733 29.0301C75.259 29.0038 75.3461 28.9827 75.4343 28.9671C75.5219 28.952 75.6105 28.9443 75.6993 28.9441C75.8091 28.9412 75.9185 28.9564 76.0233 28.9891C76.102 29.0132 76.1728 29.0578 76.2287 29.1182C76.2845 29.1786 76.3234 29.2527 76.3413 29.3331C76.3649 29.4265 76.376 29.5227 76.3743 29.6191C76.3772 29.7055 76.3736 29.7921 76.3633 29.8781V29.8761ZM78.8553 30.0121C78.7607 30.1038 78.6341 30.1551 78.5023 30.1551C78.3705 30.1551 78.2439 30.1038 78.1493 30.0121C78.0651 29.876 78.0266 29.7166 78.0393 29.5571C78.0308 29.4011 78.069 29.2461 78.1493 29.1121C78.1933 29.0617 78.2476 29.0214 78.3085 28.9938C78.3693 28.9661 78.4355 28.9518 78.5023 28.9518C78.5692 28.9518 78.6353 28.9661 78.6962 28.9938C78.757 29.0214 78.8113 29.0617 78.8553 29.1121C78.9356 29.2461 78.9739 29.4011 78.9653 29.5571C78.9781 29.7166 78.9395 29.876 78.8553 30.0121V30.0121Z" fill="black"/>
<path d="M81.2043 27.5181H81.4813C81.4927 27.5181 81.5037 27.5226 81.5117 27.5307C81.5198 27.5387 81.5243 27.5497 81.5243 27.5611V30.4181C81.5243 30.4237 81.5232 30.4293 81.521 30.4345C81.5189 30.4397 81.5157 30.4445 81.5117 30.4485C81.5077 30.4525 81.503 30.4556 81.4978 30.4578C81.4926 30.46 81.487 30.4611 81.4813 30.4611H81.2053C81.1938 30.4611 81.1828 30.4566 81.1746 30.4485C81.1663 30.4405 81.1616 30.4296 81.1613 30.4181V27.5611C81.1613 27.5497 81.1658 27.5387 81.1739 27.5307C81.182 27.5226 81.1929 27.5181 81.2043 27.5181V27.5181Z" fill="black"/>
<path d="M39.5973 22.053C39.7332 21.7857 39.8083 21.4917 39.8173 21.192C39.8011 20.904 39.7219 20.6231 39.5853 20.369C39.4312 20.1343 39.2261 19.9374 38.9853 19.793C38.7315 19.6662 38.4546 19.5927 38.1713 19.577H38.1513H38.1313C37.8544 19.5904 37.5837 19.6631 37.3373 19.79C37.0801 19.9231 36.8704 20.1328 36.7373 20.39C36.5935 20.6409 36.5174 20.9249 36.5163 21.214C36.5163 21.5099 36.5931 21.8008 36.7393 22.058C36.881 22.3068 37.0837 22.5153 37.3283 22.664C37.582 22.808 37.8687 22.8836 38.1603 22.8836C38.452 22.8836 38.7386 22.808 38.9923 22.664C39.2498 22.5244 39.4602 22.3119 39.5973 22.053V22.053Z" fill="black"/>
<path d="M41.6913 18.365C41.9261 18.3819 42.1617 18.3482 42.3824 18.2663C42.603 18.1843 42.8035 18.056 42.9704 17.89C43.2778 17.5108 43.43 17.0291 43.3963 16.542V9.71401C43.4175 9.303 43.2828 8.89913 43.0193 8.58301C42.8705 8.44156 42.6939 8.33253 42.5008 8.26282C42.3077 8.19311 42.1022 8.16423 41.8974 8.17801C41.691 8.1552 41.4821 8.17937 41.2865 8.24872C41.0908 8.31807 40.9134 8.4308 40.7674 8.57846C40.6215 8.72612 40.5108 8.90488 40.4438 9.10136C40.3768 9.29785 40.3551 9.50695 40.3803 9.71301V15.345H19.1103V9.84501C19.1253 9.63239 19.0976 9.41892 19.0289 9.21714C18.9602 9.01537 18.8519 8.82935 18.7104 8.67001C18.3853 8.39856 17.9678 8.26345 17.5453 8.29301H14.8943C14.1112 8.28348 13.3381 8.46979 12.6453 8.83501C12.0092 9.18165 11.4811 9.69727 11.1193 10.325C10.6759 11.121 10.4355 12.014 10.4193 12.925C10.3919 13.7459 10.5212 14.5645 10.8003 15.337H8.20632V9.67801C8.22374 9.45815 8.19735 9.23702 8.12869 9.02743C8.06002 8.81784 7.95049 8.62395 7.80636 8.45701C7.46496 8.19819 7.04826 8.05811 6.61984 8.05811C6.19141 8.05811 5.77472 8.19819 5.43331 8.45701C5.28634 8.62269 5.17387 8.816 5.10244 9.02565C5.03102 9.23529 5.00211 9.45706 5.01736 9.67801V17.049C5.05086 17.5279 4.96961 18.0079 4.78036 18.449C4.6653 18.6737 4.50498 18.8722 4.30947 19.0319C4.11397 19.1916 3.88746 19.3091 3.64431 19.377C3.10599 19.4583 2.56158 19.4917 2.01736 19.477H1.69735C1.2833 19.4518 0.872946 19.5678 0.53335 19.806C0.294235 20.0457 0.12643 20.3471 0.0487312 20.6766C-0.028968 21.0061 -0.0135045 21.3508 0.0933479 21.672C0.17644 21.925 0.336593 22.1456 0.551356 22.303C1.03861 22.6047 1.61057 22.7401 2.18136 22.689C2.28136 22.689 2.38135 22.689 2.48135 22.683C3.95328 22.7372 5.39818 22.2776 6.56832 21.383C7.07937 20.9348 7.47402 20.3693 7.71835 19.735L7.77737 19.635C7.96046 19.1902 8.08381 18.7232 8.14431 18.246C8.28185 18.2857 8.42339 18.3099 8.56631 18.318V18.368H17.9154C18.2297 18.3826 18.5379 18.2772 18.7774 18.073C18.9767 18.2143 19.2093 18.3015 19.4524 18.326V18.368H41.6913V18.365ZM16.1084 11.3V15.346H14.8584C14.5974 15.346 13.7993 15.346 13.5183 13.809C13.3909 13.4386 13.3647 13.0409 13.4424 12.6569C13.5201 12.273 13.6989 11.9167 13.9604 11.625C14.2866 11.383 14.6894 11.2675 15.0943 11.3H16.1084Z" fill="black"/>
<path d="M42.6973 19.793C42.4435 19.6664 42.1665 19.5929 41.8833 19.577H41.8633H41.8423C41.5658 19.5905 41.2954 19.6632 41.0493 19.79C40.7921 19.9231 40.5825 20.1328 40.4493 20.39C40.3063 20.6412 40.2305 20.925 40.2293 21.214C40.2294 21.5098 40.3059 21.8005 40.4513 22.058C40.5938 22.3065 40.7967 22.515 41.0413 22.664C41.3036 22.7988 41.5926 22.874 41.8873 22.884C42.1742 22.8715 42.4548 22.796 42.7093 22.663C42.9626 22.5182 43.1725 22.3083 43.3173 22.055C43.4527 21.7876 43.5278 21.4937 43.5373 21.194C43.5207 20.906 43.4412 20.625 43.3043 20.371C43.1485 20.1348 42.9409 19.9371 42.6973 19.793V19.793Z" fill="black"/>
<path d="M54.3213 9.76498C53.8685 9.25247 53.2963 8.85953 52.6554 8.62098C51.8631 8.33561 51.0253 8.19734 50.1833 8.21298H50.0833C49.8668 8.19755 49.6495 8.22494 49.4436 8.29358C49.2377 8.36221 49.0473 8.47075 48.8833 8.61298C48.7394 8.77025 48.6285 8.95488 48.5574 9.15589C48.4863 9.35689 48.4563 9.57016 48.4693 9.78298C48.4555 9.99831 48.485 10.2142 48.5561 10.4179C48.6272 10.6217 48.7385 10.809 48.8833 10.969C49.0455 11.1148 49.2352 11.2269 49.4413 11.2985C49.6474 11.3701 49.8656 11.3998 50.0833 11.386C50.567 11.3615 51.0501 11.4452 51.4973 11.631C51.811 11.7501 52.0777 11.9676 52.2573 12.251C52.389 12.543 52.4572 12.8596 52.4574 13.18V15.347H47.9973C47.7911 15.3217 47.5819 15.3435 47.3853 15.4106C47.1887 15.4776 47.0098 15.5883 46.8621 15.7344C46.7143 15.8804 46.6015 16.0579 46.5321 16.2537C46.4627 16.4495 46.4385 16.6585 46.4613 16.865C46.447 17.0698 46.4752 17.2753 46.544 17.4687C46.6129 17.6621 46.7209 17.8393 46.8614 17.989C47.1755 18.2567 47.5814 18.3919 47.9933 18.366H53.6643C54.1525 18.4024 54.636 18.2503 55.0153 17.941C55.1803 17.7735 55.3078 17.5728 55.3893 17.3523C55.4709 17.1318 55.5047 16.8965 55.4884 16.662L55.5063 13.298C55.5105 12.6622 55.4205 12.0294 55.2393 11.42C55.0485 10.8119 54.7362 10.2488 54.3213 9.76498V9.76498Z" fill="black"/>
<path d="M68.2403 19.333C67.9863 19.2071 67.7094 19.134 67.4263 19.118H67.4063H67.3853C67.1095 19.1317 66.8398 19.2044 66.5943 19.331C66.3348 19.4631 66.123 19.6728 65.9883 19.931C65.846 20.1813 65.7702 20.464 65.7683 20.752C65.7688 21.048 65.8452 21.3389 65.9903 21.597C66.1333 21.8457 66.337 22.0542 66.5823 22.203C66.8435 22.339 67.132 22.4142 67.4263 22.423C67.7085 22.4103 67.9847 22.3374 68.2363 22.209C68.5052 22.0773 68.7237 21.8614 68.8583 21.594C68.9937 21.3263 69.0682 21.0319 69.0763 20.732C69.0608 20.4437 68.9812 20.1626 68.8433 19.909C68.6872 19.6749 68.4813 19.4782 68.2403 19.333V19.333Z" fill="black"/>
<path d="M74.4153 12.023C73.973 11.5311 73.4201 11.1514 72.8023 10.915C72.039 10.6275 71.2278 10.4886 70.4123 10.506H68.3973C68.4081 10.2481 68.4668 9.99444 68.5703 9.758C68.7459 9.48747 69.0029 9.27979 69.3043 9.16499C69.7328 8.98115 70.1977 8.89802 70.6633 8.92199H71.2633C71.4778 8.93733 71.6932 8.90987 71.897 8.8412C72.1008 8.77253 72.2889 8.66402 72.4503 8.522C72.5904 8.3663 72.6979 8.18419 72.7666 7.98636C72.8353 7.78854 72.8638 7.57898 72.8503 7.36999C72.8652 7.16333 72.8374 6.9558 72.7686 6.76036C72.6997 6.56491 72.5914 6.38574 72.4503 6.23399C72.2893 6.09183 72.1016 5.98323 71.8981 5.91455C71.6947 5.84586 71.4795 5.81847 71.2653 5.83399H70.5653C69.7505 5.81677 68.9399 5.9556 68.1773 6.24299C67.5782 6.46969 67.0402 6.83307 66.6062 7.30423C66.1722 7.77538 65.8541 8.34131 65.6773 8.95699C65.4943 9.54405 65.4043 10.1561 65.4103 10.771L65.4293 11.812C65.3983 12.3091 65.5614 12.7988 65.8843 13.178C66.2529 13.4824 66.726 13.6303 67.2023 13.59H70.3103C70.7786 13.5663 71.246 13.6508 71.6763 13.837C71.9804 13.9461 72.2366 14.1585 72.4003 14.437C72.5154 14.6783 72.5768 14.9417 72.5803 15.209V15.39H65.5213C65.208 15.3987 64.8967 15.3372 64.6103 15.21C64.4773 15.15 64.2673 14.975 64.0203 14.478C63.8358 14.0445 63.753 13.5745 63.7783 13.104V11.939C63.7937 11.7245 63.7662 11.5091 63.6976 11.3053C63.6289 11.1015 63.5204 10.9134 63.3783 10.752C63.2228 10.6117 63.0407 10.504 62.8428 10.4353C62.645 10.3666 62.4353 10.3383 62.2263 10.352C62.0193 10.3369 61.8115 10.3647 61.6157 10.4335C61.4199 10.5023 61.2404 10.6107 61.0883 10.752C60.9466 10.9136 60.8382 11.1018 60.7696 11.3055C60.7009 11.5092 60.6733 11.7245 60.6883 11.939V13.213C60.6729 14.0336 60.812 14.8498 61.0983 15.619C61.331 16.2359 61.7082 16.788 62.1983 17.229C62.6667 17.635 63.2158 17.9373 63.8093 18.116C64.5829 18.3068 65.379 18.3905 66.1753 18.365H73.7683C74.2424 18.3983 74.7111 18.2479 75.0773 17.945C75.2411 17.7837 75.3675 17.5885 75.4475 17.373C75.5275 17.1575 75.5592 16.9271 75.5403 16.698L75.5583 15.318C75.5532 14.7457 75.4639 14.1773 75.2933 13.631C75.1228 13.0368 74.823 12.4877 74.4153 12.023V12.023Z" fill="black"/>
<path d="M71.9603 19.333C71.7063 19.2071 71.4294 19.134 71.1463 19.118H71.1253H71.1053C70.8288 19.1318 70.5585 19.2044 70.3123 19.331C70.0551 19.4641 69.8455 19.6737 69.7123 19.931C69.57 20.1813 69.4942 20.464 69.4923 20.752C69.4928 21.048 69.5692 21.3389 69.7143 21.597C69.8572 21.8451 70.0601 22.0535 70.3043 22.203C70.5578 22.3463 70.8441 22.4215 71.1353 22.4215C71.4265 22.4215 71.7128 22.3463 71.9663 22.203C72.2279 22.0642 72.4421 21.8504 72.5813 21.589C72.7162 21.3218 72.791 21.0282 72.8003 20.729C72.7832 20.441 72.7037 20.1602 72.5673 19.906C72.4097 19.6726 72.2024 19.4769 71.9603 19.333V19.333Z" fill="black"/>
<path d="M80.0073 3.95002C79.8036 3.92514 79.5968 3.94665 79.4025 4.01294C79.2082 4.07924 79.0314 4.1886 78.8853 4.33286C78.7392 4.47711 78.6276 4.65253 78.5589 4.84599C78.4901 5.03944 78.466 5.24593 78.4884 5.45002V14.163C78.4749 14.3683 78.5029 14.5741 78.5708 14.7683C78.6386 14.9624 78.7449 15.1409 78.8833 15.293C79.1992 15.5532 79.5956 15.6954 80.0048 15.6954C80.414 15.6954 80.8105 15.5532 81.1264 15.293C81.2657 15.1403 81.3728 14.9611 81.4415 14.7661C81.5103 14.5712 81.5391 14.3644 81.5263 14.158V5.45102C81.549 5.24681 81.5252 5.04012 81.4566 4.84645C81.388 4.65277 81.2764 4.47714 81.1303 4.33273C80.9841 4.18831 80.8072 4.07886 80.6127 4.01258C80.4182 3.9463 80.2113 3.92491 80.0073 3.95002Z" fill="black"/>
<path d="M80.4973 17.962H80.4303C80.3306 17.9665 80.231 17.9526 80.1363 17.921C80.0865 17.899 80.04 17.87 79.9983 17.835C79.9816 17.8143 79.969 17.7905 79.9613 17.765C79.9616 17.7525 79.9636 17.74 79.9673 17.728C79.9739 17.721 79.9817 17.7152 79.9903 17.711L80.2774 17.669H80.4773C80.5636 17.6784 80.651 17.6687 80.7331 17.6404C80.8152 17.6121 80.8901 17.566 80.9523 17.5055C81.0145 17.4449 81.0625 17.3713 81.093 17.2899C81.1234 17.2086 81.1355 17.1216 81.1283 17.035C81.139 16.9474 81.1284 16.8584 81.0974 16.7758C81.0664 16.6931 81.016 16.6191 80.9503 16.56C80.8875 16.5002 80.8132 16.4537 80.7319 16.4233C80.6506 16.3929 80.564 16.3792 80.4773 16.383H80.1363C79.9346 16.3844 79.7344 16.4182 79.5434 16.483C79.3811 16.5303 79.2289 16.6069 79.0943 16.709C78.9629 16.8156 78.8599 16.953 78.7943 17.109C78.7296 17.247 78.6932 17.3967 78.6873 17.549C78.6859 17.7341 78.7369 17.9157 78.8343 18.073C78.8493 18.102 78.8653 18.13 78.8813 18.156C78.7982 18.2107 78.7353 18.2911 78.7024 18.385C78.6748 18.4546 78.6589 18.5283 78.6554 18.603C78.651 18.6891 78.6642 18.7753 78.6943 18.8561C78.7244 18.9369 78.7707 19.0107 78.8303 19.073C78.8914 19.1305 78.9637 19.1747 79.0427 19.2029C79.1217 19.2312 79.2057 19.2428 79.2893 19.237H80.4893C80.6527 19.2424 80.8135 19.1955 80.9483 19.103L81.0074 19.043C81.0985 18.9147 81.1458 18.7604 81.1424 18.603C81.1521 18.5087 81.1379 18.4135 81.1012 18.3262C81.0645 18.2388 81.0065 18.1621 80.9323 18.103C80.8057 18.0116 80.6535 17.9622 80.4973 17.962V17.962Z" fill="black"/>
<path d="M13.3203 6.98603C14.2653 6.98603 15.0313 6.21999 15.0313 5.27503C15.0313 4.33007 14.2653 3.56403 13.3203 3.56403C12.3754 3.56403 11.6093 4.33007 11.6093 5.27503C11.6093 6.21999 12.3754 6.98603 13.3203 6.98603Z" fill="black"/>
<path d="M17.4393 6.98603C18.3843 6.98603 19.1503 6.21999 19.1503 5.27503C19.1503 4.33007 18.3843 3.56403 17.4393 3.56403C16.4944 3.56403 15.7283 4.33007 15.7283 5.27503C15.7283 6.21999 16.4944 6.98603 17.4393 6.98603Z" fill="black"/>
<path d="M15.4773 3.422C16.4223 3.422 17.1883 2.65596 17.1883 1.711C17.1883 0.766041 16.4223 0 15.4773 0C14.5323 0 13.7663 0.766041 13.7663 1.711C13.7663 2.65596 14.5323 3.422 15.4773 3.422Z" fill="black"/>
<defs>
<linearGradient id="paint0_linear_386_3674" x1="122.093" y1="19.5974" x2="61.543" y2="31.0366" gradientUnits="userSpaceOnUse">
<stop stop-color="#4C98C5"/>
<stop offset="1" stop-color="#6D1E8A"/>
</linearGradient>
<linearGradient id="paint1_linear_386_3674" x1="158.607" y1="10.3093" x2="94.6459" y2="39.4218" gradientUnits="userSpaceOnUse">
<stop stop-color="#4C98C5"/>
<stop offset="1" stop-color="#6D1E8A"/>
</linearGradient>
<linearGradient id="paint2_linear_386_3674" x1="148.234" y1="15.8607" x2="94.3787" y2="44.5215" gradientUnits="userSpaceOnUse">
<stop stop-color="#4C98C5"/>
<stop offset="1" stop-color="#6D1E8A"/>
</linearGradient>
<linearGradient id="paint3_linear_386_3674" x1="100.87" y1="8.06922" x2="94.9381" y2="23.9893" gradientUnits="userSpaceOnUse">
<stop stop-color="#4C98C5"/>
<stop offset="1" stop-color="#6D1E8A"/>
</linearGradient>
<linearGradient id="paint4_linear_386_3674" x1="138.98" y1="8.75892" x2="112.456" y2="46.6286" gradientUnits="userSpaceOnUse">
<stop stop-color="#4C98C5"/>
<stop offset="1" stop-color="#6D1E8A"/>
</linearGradient>
</defs>
</svg>
